<svg width="1139" height="111" viewBox="0 0 1139 111" fill="none" xmlns="http://www.w3.org/2000/svg">
<path d="M0.666667 54.0002C0.666667 56.9458 3.05448 59.3336 6 59.3336C8.94552 59.3336 11.3333 56.9458 11.3333 54.0002C11.3333 51.0547 8.94552 48.6669 6 48.6669C3.05448 48.6669 0.666667 51.0547 0.666667 54.0002ZM322 54.0002L321.645 53.0652L322 54.0002ZM682 78.0001L681.345 78.7554L681.51 78.8988L681.72 78.9601L682 78.0001ZM712 5.99997L712.41 5.08805L712 5.99997ZM1139 32.0079C1139 31.4557 1138.56 31.0045 1138.01 31.0002L1129.01 30.9305C1128.46 30.9262 1128 31.3704 1128 31.9227C1128 32.4749 1128.44 32.9261 1128.99 32.9304L1136.99 32.9924L1136.93 40.9922C1136.93 41.5444 1137.37 41.9956 1137.92 41.9999C1138.47 42.0042 1138.93 41.5599 1138.93 41.0077L1139 32.0079ZM5.48074 54.8548C6.17918 55.2792 6.8841 55.704 7.59561 56.1289L8.62102 54.4117C7.91402 53.9895 7.21347 53.5674 6.51926 53.1456L5.48074 54.8548ZM11.9004 58.6526C13.3259 59.4726 14.7768 60.2913 16.2538 61.1071L17.2208 59.3563C15.7543 58.5464 14.3135 57.7334 12.8976 56.9189L11.9004 58.6526ZM20.6376 63.4768C22.0867 64.2431 23.56 65.0053 25.0581 65.7618L25.9596 63.9765C24.473 63.2258 23.0109 62.4694 21.5725 61.7088L20.6376 63.4768ZM29.5309 67.9665C31.0163 68.6807 32.5252 69.3884 34.0581 70.0884L34.8888 68.269C33.3681 67.5747 31.8713 66.8726 30.3976 66.164L29.5309 67.9665ZM38.6188 72.1155C40.1249 72.7667 41.6534 73.4098 43.2049 74.0435L43.9612 72.192C42.4225 71.5635 40.9064 70.9257 39.4126 70.2797L38.6188 72.1155ZM47.8465 75.8839C49.3886 76.4771 50.9526 77.0605 52.5389 77.6332L53.218 75.752C51.6449 75.1841 50.0939 74.6055 48.5645 74.0172L47.8465 75.8839ZM57.2276 79.2717C58.7885 79.7991 60.3702 80.3159 61.9732 80.821L62.5743 78.9135C60.9845 78.4125 59.4159 77.9 57.868 77.3769L57.2276 79.2717ZM66.7626 82.2762C68.3362 82.7367 69.9296 83.1857 71.5432 83.6226L72.0658 81.6921C70.4654 81.2588 68.885 80.8134 67.3243 80.3567L66.7626 82.2762ZM76.3836 84.8807C77.9807 85.2786 79.5968 85.6644 81.2325 86.0375L81.6773 84.0876C80.0546 83.7175 78.4513 83.3347 76.8671 82.94L76.3836 84.8807ZM86.0977 87.0969C87.7191 87.4333 89.359 87.7572 91.0177 88.0677L91.3858 86.1019C89.7399 85.7937 88.1127 85.4724 86.5041 85.1386L86.0977 87.0969ZM95.899 88.9338C97.5312 89.2074 99.1812 89.4683 100.849 89.7157L101.143 87.7374C99.4871 87.4918 97.8496 87.2329 96.2298 86.9613L95.899 88.9338ZM105.766 90.3992C107.404 90.6115 109.058 90.811 110.729 90.9971L110.95 89.0093C109.291 88.8246 107.649 88.6266 106.024 88.4158L105.766 90.3992ZM115.68 91.5041C117.321 91.6575 118.979 91.7982 120.652 91.9255L120.804 89.9313C119.142 89.8048 117.496 89.6651 115.867 89.5127L115.68 91.5041ZM125.624 92.2616C127.268 92.3588 128.928 92.4433 130.602 92.5146L130.687 90.5164C129.024 90.4455 127.375 90.3616 125.742 90.2651L125.624 92.2616ZM135.584 92.6863C137.231 92.7299 138.892 92.7608 140.569 92.7787L140.59 90.7788C138.924 90.761 137.273 90.7303 135.636 90.687L135.584 92.6863ZM145.547 92.7937C147.198 92.786 148.862 92.7659 150.541 92.7329L150.502 90.7333C148.833 90.7661 147.178 90.7861 145.538 90.7937L145.547 92.7937ZM155.505 92.5993C157.161 92.5427 158.83 92.4737 160.513 92.3921L160.416 90.3945C158.743 90.4756 157.083 90.5442 155.437 90.6004L155.505 92.5993ZM165.454 92.1183C167.114 92.015 168.786 91.8994 170.472 91.7713L170.321 89.777C168.644 89.9044 166.98 90.0194 165.329 90.1222L165.454 92.1183ZM175.389 91.3655C177.037 91.2187 178.697 91.0601 180.37 90.8894L180.167 88.8997C178.503 89.0695 176.851 89.2273 175.211 89.3734L175.389 91.3655ZM185.31 90.3542C186.944 90.167 188.59 89.9683 190.247 89.758L189.995 87.7739C188.346 87.9832 186.708 88.1809 185.082 88.3672L185.31 90.3542ZM195.22 89.0969C196.837 88.872 198.466 88.6362 200.105 88.3893L199.807 86.4116C198.175 86.6574 196.554 86.8921 194.944 87.1159L195.22 89.0969ZM205.056 87.6149C206.677 87.3521 208.308 87.0785 209.95 86.7939L209.608 84.8233C207.973 85.1066 206.35 85.379 204.736 85.6406L205.056 87.6149ZM214.84 85.9194C216.478 85.6174 218.128 85.3046 219.787 84.9808L219.404 83.0179C217.751 83.3403 216.109 83.6518 214.477 83.9525L214.84 85.9194ZM224.611 84.0145C226.229 83.6821 227.857 83.3393 229.494 82.986L229.072 81.031C227.441 81.3829 225.82 81.7243 224.209 82.0554L224.611 84.0145ZM234.38 81.9073C235.974 81.5473 237.577 81.1774 239.189 80.7976L238.731 78.8509C237.124 79.2293 235.527 79.5978 233.939 79.9564L234.38 81.9073ZM244.054 79.6279C245.657 79.235 247.268 78.8323 248.888 78.4196L248.395 76.4815C246.78 76.8927 245.175 77.294 243.578 77.6855L244.054 79.6279ZM253.674 77.1789C255.278 76.7558 256.89 76.323 258.512 75.8805L257.985 73.951C256.369 74.3921 254.762 74.8234 253.164 75.2451L253.674 77.1789ZM263.306 74.5507C264.883 74.1065 266.467 73.6533 268.06 73.1908L267.502 71.2701C265.914 71.7311 264.335 72.1829 262.764 72.6256L263.306 74.5507ZM272.862 71.7755C274.444 71.3026 276.034 70.8207 277.632 70.3297L277.044 68.4179C275.451 68.9075 273.866 69.3879 272.289 69.8593L272.862 71.7755ZM282.346 68.8619C283.925 68.3638 285.511 67.8569 287.106 67.3411L286.49 65.4382C284.9 65.9525 283.318 66.4579 281.744 66.9545L282.346 68.8619ZM291.866 65.7824C293.414 65.2691 294.97 64.7474 296.534 64.2173L295.892 62.3233C294.333 62.8519 292.781 63.3721 291.236 63.884L291.866 65.7824ZM301.246 62.6016C302.824 62.0546 304.409 61.499 306.002 60.9348L305.334 59.0496C303.746 59.6123 302.165 60.1664 300.591 60.712L301.246 62.6016ZM310.63 59.2787C312.176 58.7198 313.729 58.1529 315.289 57.5779L314.597 55.7014C313.041 56.2749 311.492 56.8404 309.95 57.3978L310.63 59.2787ZM319.989 55.8284C320.776 55.5328 321.564 55.235 322.355 54.9352L321.645 53.0652C320.857 53.3643 320.07 53.6613 319.285 53.9563L319.989 55.8284ZM322.355 54.9352C323.147 54.6347 323.939 54.3367 324.731 54.0413L324.033 52.1674C323.237 52.4641 322.441 52.7633 321.645 53.0652L322.355 54.9352ZM329.482 52.2999C331.064 51.7297 332.646 51.1698 334.227 50.6199L333.57 48.7309C331.982 49.2832 330.393 49.8456 328.804 50.4183L329.482 52.2999ZM338.993 48.9922C340.597 48.4542 342.2 47.9266 343.802 47.4092L343.187 45.506C341.578 46.0257 339.968 46.5556 338.357 47.096L338.993 48.9922ZM348.604 45.8876C350.21 45.3888 351.814 44.9001 353.417 44.4215L352.844 42.5051C351.235 42.9859 349.623 43.4767 348.011 43.9777L348.604 45.8876ZM358.278 42.9994C359.897 42.5356 361.515 42.082 363.131 41.6384L362.601 39.7097C360.978 40.1552 359.353 40.6109 357.727 41.0767L358.278 42.9994ZM367.986 40.3344C369.624 39.9044 371.259 39.4846 372.893 39.075L372.407 37.135C370.766 37.5465 369.123 37.9681 367.478 38.4L367.986 40.3344ZM377.79 37.8762C379.424 37.4858 381.055 37.1054 382.685 36.7349L382.242 34.7847C380.605 35.1568 378.966 35.5389 377.325 35.931L377.79 37.8762ZM387.632 35.6395C389.279 35.2844 390.923 34.9394 392.565 34.6043L392.165 32.6447C390.516 32.9813 388.864 33.3278 387.211 33.6844L387.632 35.6395ZM397.498 33.626C399.16 33.3059 400.82 32.9957 402.477 32.6956L402.121 30.7276C400.456 31.0291 398.789 31.3405 397.12 31.6621L397.498 33.626ZM407.441 31.8249C409.099 31.5434 410.754 31.2718 412.407 31.01L412.094 29.0346C410.434 29.2976 408.772 29.5704 407.106 29.8531L407.441 31.8249ZM417.413 30.2452C419.078 30.0001 420.74 29.7649 422.399 29.5394L422.13 27.5576C420.464 27.7841 418.794 28.0203 417.121 28.2665L417.413 30.2452ZM427.396 28.8882C429.074 28.6787 430.749 28.4792 432.421 28.2894L432.195 26.3021C430.516 26.4928 428.834 26.6932 427.148 26.9036L427.396 28.8882ZM437.423 27.7488C439.102 27.5767 440.777 27.4144 442.447 27.2616L442.265 25.2699C440.587 25.4234 438.905 25.5864 437.219 25.7592L437.423 27.7488ZM447.484 26.8289C449.159 26.6943 450.83 26.5692 452.496 26.4536L452.358 24.4584C450.684 24.5745 449.006 24.7001 447.324 24.8353L447.484 26.8289ZM457.545 26.131C459.23 26.0326 460.911 25.9438 462.587 25.8643L462.492 23.8666C460.809 23.9463 459.121 24.0356 457.428 24.1344L457.545 26.131ZM467.6 25.654C469.296 25.5921 470.986 25.5398 472.671 25.4968L472.62 23.4975C470.928 23.5406 469.23 23.5931 467.527 23.6553L467.6 25.654ZM477.71 25.396C479.393 25.3715 481.072 25.3563 482.744 25.3502L482.737 23.3502C481.057 23.3563 479.372 23.3716 477.681 23.3962L477.71 25.396ZM487.808 25.3598C489.489 25.3722 491.165 25.3938 492.835 25.4244L492.871 23.4248C491.194 23.394 489.511 23.3723 487.822 23.3598L487.808 25.3598ZM497.889 25.5449C499.578 25.5945 501.26 25.6533 502.936 25.721L503.017 23.7226C501.334 23.6546 499.644 23.5956 497.948 23.5458L497.889 25.5449ZM507.949 25.9511C509.645 26.0383 511.334 26.1346 513.015 26.2399L513.14 24.2438C511.451 24.1381 509.755 24.0413 508.052 23.9538L507.949 25.9511ZM518.036 26.5821C519.721 26.7064 521.398 26.8395 523.068 26.9814L523.237 24.9886C521.56 24.8461 519.875 24.7123 518.183 24.5875L518.036 26.5821ZM528.102 27.4376C529.773 27.5986 531.435 27.7682 533.09 27.9462L533.304 25.9577C531.642 25.7789 529.972 25.6085 528.293 25.4468L528.102 27.4376ZM538.135 28.5184C539.807 28.7177 541.471 28.9257 543.125 29.1419L543.384 27.1588C541.723 26.9416 540.052 26.7327 538.372 26.5324L538.135 28.5184ZM548.132 29.826C549.807 30.0646 551.471 30.3118 553.126 30.5673L553.431 28.5907C551.769 28.3341 550.096 28.0857 548.414 27.846L548.132 29.826ZM558.088 31.3629C559.764 31.6418 561.429 31.9291 563.083 32.2245L563.435 30.2557C561.773 29.9589 560.1 29.6702 558.416 29.39L558.088 31.3629ZM568.01 33.1349C569.683 33.4544 571.343 33.7821 572.992 34.1178L573.391 32.158C571.735 31.8207 570.066 31.4914 568.385 31.1704L568.01 33.1349ZM577.909 35.1508C579.568 35.5101 581.214 35.8773 582.846 36.2523L583.294 34.303C581.654 33.9262 580 33.5571 578.332 33.1961L577.909 35.1508ZM587.749 37.4115C589.395 37.8117 591.026 38.2196 592.642 38.635L593.139 36.698C591.515 36.2804 589.876 35.8704 588.222 35.4681L587.749 37.4115ZM597.523 39.9245C599.155 40.3673 600.771 40.8176 602.37 41.275L602.92 39.3521C601.312 38.8922 599.688 38.4395 598.047 37.9943L597.523 39.9245ZM607.222 42.6995C608.841 43.1873 610.441 43.6823 612.024 44.1841L612.628 42.2776C611.037 41.7729 609.427 41.2751 607.799 40.7845L607.222 42.6995ZM616.833 45.7488C618.439 46.2848 620.025 46.8277 621.59 47.3769L622.253 45.4898C620.678 44.9371 619.082 44.3909 617.466 43.8516L616.833 45.7488ZM626.342 49.0879C627.936 49.6764 629.506 50.2715 631.053 50.8725L631.777 49.0083C630.22 48.4032 628.639 47.8041 627.035 47.2117L626.342 49.0879ZM635.726 52.7361C637.307 53.383 638.861 54.0359 640.387 54.6942L641.179 52.8577C639.641 52.1944 638.076 51.5367 636.484 50.885L635.726 52.7361ZM644.953 56.7173C646.519 57.4302 648.053 58.1484 649.554 58.8712L650.422 57.0692C648.908 56.3401 647.361 55.6157 645.782 54.897L644.953 56.7173ZM654.045 61.0973C655.567 61.8739 657.051 62.6548 658.495 63.4388L659.449 61.6811C657.99 60.8887 656.491 60.1 654.955 59.3159L654.045 61.0973ZM662.904 65.9116C664.382 66.7686 665.812 67.6281 667.194 68.489L668.252 66.7914C666.851 65.9189 665.402 65.0486 663.907 64.1815L662.904 65.9116ZM671.386 71.2021C672.825 72.1718 674.202 73.1413 675.515 74.1091L676.701 72.4993C675.365 71.5138 673.965 70.528 672.503 69.5434L671.386 71.2021ZM679.48 77.1848C680.121 77.7096 680.743 78.2333 681.345 78.7554L682.655 77.2448C682.039 76.7096 681.402 76.1736 680.747 75.6371L679.48 77.1848ZM682.894 77.5529C682.506 76.7757 682.126 76.0029 681.755 75.2345L679.954 76.1036C680.329 76.8806 680.713 77.6618 681.106 78.4473L682.894 77.5529ZM679.605 70.6056C678.897 69.0213 678.229 67.4576 677.599 65.9151L675.747 66.6713C676.386 68.2342 677.062 69.8177 677.778 71.4211L679.605 70.6056ZM675.753 61.1612C675.152 59.5287 674.597 57.9225 674.085 56.3436L672.182 56.9601C672.702 58.5645 673.266 60.1953 673.876 61.8516L675.753 61.1612ZM672.619 51.4645C672.155 49.7843 671.743 48.1388 671.383 46.5296L669.432 46.9662C669.799 48.6089 670.219 50.2863 670.691 51.9972L672.619 51.4645ZM670.413 41.5498C670.13 39.833 669.911 38.1639 669.753 36.5441L667.762 36.7383C667.925 38.404 668.15 40.1169 668.44 41.875L670.413 41.5498ZM669.454 31.4744C669.422 29.7286 669.471 28.0521 669.595 26.4476L667.602 26.2923C667.471 27.9645 667.422 29.705 667.454 31.5105L669.454 31.4744ZM670.272 21.4703C670.612 19.7656 671.055 18.1663 671.594 16.676L669.713 15.9955C669.137 17.587 668.669 19.2834 668.311 21.0788L670.272 21.4703ZM673.688 12.2079C674.553 10.7548 675.542 9.45303 676.647 8.30711L675.208 6.91867C673.99 8.18108 672.909 9.6068 671.97 11.1851L673.688 12.2079ZM680.441 5.25693C681.803 4.42325 683.286 3.75053 684.885 3.2476L684.285 1.33974C682.535 1.89003 680.903 2.62946 679.397 3.55111L680.441 5.25693ZM689.71 2.28609C691.281 2.13459 692.939 2.11662 694.68 2.23932L694.82 0.244266C692.977 0.114358 691.208 0.132376 689.518 0.295324L689.71 2.28609ZM699.617 2.92494C701.194 3.24493 702.825 3.66714 704.509 4.19531L705.108 2.28694C703.362 1.73954 701.664 1.29958 700.015 0.964906L699.617 2.92494ZM709.237 5.9034C710.012 6.21878 710.796 6.55485 711.59 6.91189L712.41 5.08805C711.596 4.72139 710.789 4.37578 709.992 4.05104L709.237 5.9034ZM711.59 6.91189C712.424 7.28746 713.228 7.6667 714.001 8.04939L714.888 6.25701C714.092 5.86297 713.266 5.47326 712.41 5.08805L711.59 6.91189ZM718.498 10.5177C720.058 11.4713 721.449 12.4408 722.684 13.4229L723.929 11.8578C722.624 10.8194 721.164 9.80329 719.542 8.81137L718.498 10.5177ZM726.338 16.8559C727.531 18.2061 728.465 19.5706 729.17 20.942L730.949 20.0276C730.161 18.496 729.13 16.9954 727.837 15.5316L726.338 16.8559ZM730.722 25.5713C730.993 27.1889 731 28.8275 730.775 30.4808L732.757 30.7508C733.007 28.9144 733.001 27.0728 732.694 25.241L730.722 25.5713ZM729.503 35.2943C728.918 36.8124 728.166 38.3352 727.271 39.855L728.994 40.8702C729.936 39.27 730.739 37.6485 731.369 36.0136L729.503 35.2943ZM724.42 44.0808C723.409 45.4167 722.306 46.7408 721.129 48.0475L722.615 49.3859C723.825 48.0423 724.966 46.6745 726.015 45.2879L724.42 44.0808ZM717.545 51.7661C716.319 52.9612 715.045 54.1346 713.74 55.2816L715.06 56.7839C716.388 55.6165 717.688 54.4197 718.941 53.1983L717.545 51.7661ZM709.767 58.6219C708.407 59.7185 707.033 60.783 705.66 61.8109L706.859 63.4117C708.249 62.3708 709.643 61.2917 711.023 60.1788L709.767 58.6219ZM701.443 64.8659C699.983 65.8897 698.547 66.8644 697.156 67.7841L698.258 69.4526C699.664 68.5235 701.116 67.5385 702.591 66.5033L701.443 64.8659ZM692.752 70.6128C691.141 71.6188 689.64 72.525 688.294 73.3192L689.311 75.0417C690.67 74.2397 692.185 73.3248 693.811 72.3092L692.752 70.6128ZM683.798 75.8921C683.078 76.2907 682.512 76.5966 682.126 76.8024C681.934 76.9053 681.786 76.9832 681.687 77.0351C681.638 77.061 681.601 77.0805 681.576 77.0934C681.564 77.0998 681.555 77.1046 681.549 77.1077C681.546 77.1093 681.543 77.1104 681.542 77.1111C681.541 77.1115 681.541 77.1117 681.541 77.1119C681.54 77.112 681.54 77.112 681.54 77.112C681.54 77.112 681.54 77.112 681.54 77.112V77.112C681.54 77.112 681.54 77.112 682 78.0001C682.46 78.8882 682.46 78.8882 682.46 78.8882C682.46 78.8882 682.46 78.8881 682.46 78.8881C682.46 78.8881 682.46 78.8881 682.46 78.888C682.46 78.8879 682.46 78.8878 682.461 78.8877C682.461 78.8874 682.462 78.8871 682.463 78.8866C682.465 78.8856 682.467 78.8842 682.471 78.8824C682.478 78.8789 682.488 78.8736 682.501 78.8667C682.528 78.8529 682.567 78.8324 682.618 78.8054C682.721 78.7515 682.872 78.6715 683.069 78.5665C683.462 78.3563 684.037 78.0457 684.766 77.6422L683.798 75.8921ZM681.72 78.9601C682.509 79.1901 683.299 79.4193 684.091 79.6476L684.645 77.7258C683.855 77.4981 683.066 77.2695 682.28 77.0401L681.72 78.9601ZM688.868 81.0073C690.468 81.4571 692.074 81.9035 693.688 82.3462L694.218 80.4174C692.608 79.9758 691.005 79.5307 689.409 79.082L688.868 81.0073ZM698.49 83.6469C700.086 84.0738 701.688 84.4971 703.297 84.9168L703.802 82.9815C702.197 82.5629 700.598 82.1406 699.007 81.7148L698.49 83.6469ZM708.142 86.1646C709.743 86.5716 711.35 86.9749 712.963 87.3743L713.444 85.433C711.835 85.0345 710.232 84.6322 708.635 84.2263L708.142 86.1646ZM717.796 88.5556C719.412 88.9456 721.034 89.3316 722.662 89.7137L723.119 87.7667C721.495 87.3855 719.877 87.0004 718.265 86.6114L717.796 88.5556ZM727.503 90.835C729.116 91.2034 730.735 91.5679 732.358 91.9284L732.791 89.9759C731.172 89.6164 729.558 89.2527 727.949 88.8852L727.503 90.835ZM737.241 92.9975C738.858 93.3462 740.479 93.6909 742.105 94.0315L742.515 92.074C740.893 91.7343 739.276 91.3904 737.663 91.0424L737.241 92.9975ZM746.978 95.0372C748.607 95.3682 750.24 95.6951 751.877 96.0175L752.263 94.0552C750.63 93.7335 749.001 93.4075 747.376 93.0773L746.978 95.0372ZM756.761 96.9645C758.388 97.2748 760.018 97.5808 761.652 97.8823L762.015 95.9156C760.385 95.6147 758.759 95.3095 757.136 95L756.761 96.9645ZM766.564 98.7736C768.196 99.0646 769.831 99.3511 771.469 99.633L771.808 97.662C770.174 97.3807 768.543 97.0949 766.915 96.8047L766.564 98.7736ZM776.375 100.462C778.014 100.734 779.655 101.001 781.299 101.264L781.615 99.2886C779.974 99.0267 778.337 98.7602 776.702 98.4891L776.375 100.462ZM786.222 102.034C787.86 102.285 789.5 102.532 791.143 102.773L791.434 100.795C789.795 100.553 788.159 100.308 786.526 100.057L786.222 102.034ZM796.078 103.484C797.723 103.715 799.369 103.942 801.018 104.163L801.284 102.181C799.64 101.96 797.997 101.734 796.357 101.503L796.078 103.484ZM805.952 104.811C807.598 105.022 809.247 105.227 810.897 105.428L811.139 103.443C809.493 103.243 807.848 103.037 806.206 102.827L805.952 104.811ZM815.85 106.014C817.497 106.204 819.146 106.389 820.797 106.568L821.013 104.58C819.366 104.401 817.722 104.217 816.079 104.028L815.85 106.014ZM825.752 107.09C827.405 107.259 829.059 107.422 830.715 107.58L830.905 105.589C829.254 105.432 827.604 105.269 825.955 105.1L825.752 107.09ZM835.673 108.037C837.327 108.184 838.982 108.325 840.637 108.461L840.801 106.468C839.15 106.332 837.499 106.191 835.85 106.045L835.673 108.037ZM845.606 108.852C847.262 108.976 848.919 109.095 850.576 109.208L850.712 107.213C849.06 107.1 847.408 106.981 845.756 106.857L845.606 108.852ZM855.548 109.53C857.206 109.632 858.864 109.728 860.522 109.818L860.631 107.821C858.977 107.731 857.324 107.636 855.671 107.534L855.548 109.53ZM865.5 110.07C867.16 110.148 868.82 110.22 870.479 110.287L870.559 108.288C868.904 108.222 867.249 108.15 865.594 108.072L865.5 110.07ZM875.458 110.467C877.119 110.521 878.779 110.568 880.44 110.61L880.49 108.611C878.835 108.569 877.179 108.521 875.523 108.468L875.458 110.467ZM885.424 110.716C887.085 110.745 888.746 110.767 890.405 110.784L890.425 108.784C888.77 108.767 887.115 108.745 885.459 108.716L885.424 110.716ZM895.388 110.813C897.052 110.816 898.714 110.812 900.376 110.802L900.364 108.803C898.708 108.812 897.05 108.816 895.392 108.813L895.388 110.813ZM905.358 110.752C907.019 110.729 908.678 110.699 910.336 110.662L910.292 108.662C908.639 108.699 906.985 108.729 905.33 108.753L905.358 110.752ZM915.326 110.529C916.988 110.478 918.648 110.42 920.306 110.355L920.228 108.356C918.575 108.421 916.921 108.479 915.265 108.53L915.326 110.529ZM925.277 110.138C926.942 110.058 928.605 109.971 930.266 109.876L930.152 107.88C928.497 107.974 926.84 108.061 925.181 108.14L925.277 110.138ZM935.241 109.571C936.897 109.461 938.551 109.345 940.203 109.22L940.053 107.226C938.407 107.35 936.76 107.466 935.109 107.575L935.241 109.571ZM945.183 108.822C946.842 108.682 948.497 108.533 950.15 108.377L949.962 106.386C948.316 106.542 946.666 106.689 945.014 106.829L945.183 108.822ZM955.1 107.885C956.758 107.712 958.414 107.531 960.066 107.342L959.838 105.355C958.193 105.544 956.544 105.724 954.892 105.896L955.1 107.885ZM965.02 106.749C966.667 106.543 968.312 106.329 969.953 106.107L969.684 104.125C968.05 104.346 966.413 104.56 964.772 104.765L965.02 106.749ZM974.899 105.409C976.547 105.168 978.192 104.917 979.833 104.659L979.521 102.683C977.888 102.941 976.25 103.19 974.609 103.43L974.899 105.409ZM984.743 103.856C986.387 103.578 988.027 103.29 989.662 102.994L989.306 101.026C987.678 101.321 986.046 101.607 984.409 101.884L984.743 103.856ZM994.57 102.075C996.201 101.76 997.827 101.435 999.449 101.101L999.046 99.1425C997.432 99.4747 995.813 99.7977 994.19 100.112L994.57 102.075ZM1004.34 100.064C1005.96 99.7075 1007.59 99.3414 1009.21 98.9657L1008.75 97.0175C1007.14 97.3913 1005.53 97.7555 1003.91 98.1101L1004.34 100.064ZM1014.05 97.8094C1015.67 97.4109 1017.28 97.0026 1018.89 96.5841L1018.39 94.6485C1016.79 95.0647 1015.18 95.4709 1013.57 95.8672L1014.05 97.8094ZM1023.72 95.2944C1025.32 94.8543 1026.91 94.404 1028.5 93.9433L1027.95 92.0223C1026.37 92.4804 1024.78 92.9282 1023.19 93.3658L1023.72 95.2944ZM1033.3 92.5173C1034.89 92.0301 1036.48 91.5322 1038.06 91.0235L1037.45 89.1196C1035.88 89.6252 1034.3 90.1202 1032.71 90.6045L1033.3 92.5173ZM1042.79 89.4649C1044.37 88.9293 1045.95 88.3825 1047.51 87.8244L1046.84 85.9401C1045.29 86.4946 1043.72 87.038 1042.15 87.5704L1042.79 89.4649ZM1052.21 86.1136C1053.76 85.532 1055.31 84.939 1056.85 84.3344L1056.12 82.4727C1054.59 83.0732 1053.05 83.6624 1051.51 84.2402L1052.21 86.1136ZM1061.5 82.4656C1063.04 81.8306 1064.57 81.1838 1066.1 80.5249L1065.3 78.689C1063.79 79.3433 1062.27 79.9857 1060.74 80.6163L1061.5 82.4656ZM1070.65 78.5093C1072.17 77.8191 1073.69 77.1166 1075.19 76.4015L1074.34 74.595C1072.84 75.3049 1071.34 76.0024 1069.83 76.6876L1070.65 78.5093ZM1079.68 74.2185C1081.17 73.4761 1082.65 72.721 1084.12 71.953L1083.2 70.1799C1081.74 70.942 1080.27 71.6914 1078.79 72.4282L1079.68 74.2185ZM1088.54 69.5953C1090 68.7963 1091.45 67.9842 1092.89 67.1588L1091.9 65.4233C1090.47 66.2421 1089.03 67.0478 1087.58 67.8405L1088.54 69.5953ZM1097.2 64.6325C1098.63 63.7738 1100.05 62.9015 1101.46 62.0154L1100.4 60.3222C1099 61.2008 1097.59 62.0659 1096.17 62.9175L1097.2 64.6325ZM1105.66 59.316C1107.05 58.3985 1108.43 57.467 1109.81 56.5215L1108.67 54.8752C1107.31 55.8125 1105.94 56.7359 1104.56 57.6456L1105.66 59.316ZM1113.89 53.6381C1115.24 52.6628 1116.58 51.6732 1117.9 50.6692L1116.69 49.0749C1115.38 50.0698 1114.05 51.0505 1112.72 52.0172L1113.89 53.6381ZM1121.85 47.6041C1123.16 46.5678 1124.45 45.5169 1125.73 44.4512L1124.45 42.914C1123.18 43.9698 1121.9 45.0109 1120.61 46.0377L1121.85 47.6041ZM1129.54 41.2096C1130.79 40.1142 1132.03 39.0038 1133.26 37.8785L1131.91 36.4035C1130.69 37.5181 1129.46 38.6178 1128.22 39.7029L1129.54 41.2096ZM1136.91 34.4571C1137.51 33.8795 1138.11 33.298 1138.7 32.7128L1137.3 31.2876C1136.71 31.8672 1136.12 32.443 1135.52 33.0151L1136.91 34.4571Z" fill="black"/>
</svg>
